<svg width="19" height="15" viewBox="0 0 19 15" fill="none" xmlns="http://www.w3.org/2000/svg">
<path d="M1.16667 6.76758C0.762166 6.76758 0.43425 7.09549 0.43425 7.5C0.43425 7.90451 0.762166 8.23242 1.16667 8.23242V6.76758ZM17.8333 8.23242C18.2378 8.23242 18.5658 7.90451 18.5658 7.5C18.5658 7.09549 18.2378 6.76758 17.8333 6.76758V8.23242ZM1.16667 0.517578C0.762166 0.517578 0.43425 0.845495 0.43425 1.25C0.43425 1.65451 0.762166 1.98242 1.16667 1.98242V0.517578ZM17.8333 1.98242C18.2378 1.98242 18.5658 1.65451 18.5658 1.25C18.5658 0.845495 18.2378 0.517578 17.8333 0.517578V1.98242ZM1.16667 13.0176C0.762166 13.0176 0.43425 13.3455 0.43425 13.75C0.43425 14.1545 0.762166 14.4824 1.16667 14.4824V13.0176ZM17.8333 14.4824C18.2378 14.4824 18.5658 14.1545 18.5658 13.75C18.5658 13.3455 18.2378 13.0176 17.8333 13.0176V14.4824ZM1.16667 8.23242H17.8333V6.76758H1.16667V8.23242ZM1.16667 1.98242H17.8333V0.517578H1.16667V1.98242ZM1.16667 14.4824H17.8333V13.0176H1.16667V14.4824Z" fill="white"/>
</svg>
